<mxfile host="app.diagrams.net" agent="Mozilla/5.0 (X11; Ubuntu; Linux x86_64; rv:136.0) Gecko/20100101 Firefox/136.0" version="26.0.16">
  <diagram name="Page-1" id="ktF5TGMckmJRGJdR5RHU">
    <mxGraphModel dx="3807" dy="2695" grid="0" gridSize="10" guides="0" tooltips="1" connect="1" arrows="1" fold="1" page="0" pageScale="1" pageWidth="850" pageHeight="1100" math="0" shadow="0">
      <root>
        <mxCell id="0" />
        <mxCell id="1" parent="0" />
        <mxCell id="Ha7d3gf7u0IMwQA5T3X--1" value="Main" style="rounded=1;whiteSpace=wrap;html=1;verticalAlign=top;fontStyle=1;fontSize=24;fillColor=#A9C4EB;strokeColor=#6c8ebf;gradientColor=none;" parent="1" vertex="1">
          <mxGeometry x="-849" y="-251" width="814" height="2542" as="geometry" />
        </mxCell>
        <mxCell id="Ha7d3gf7u0IMwQA5T3X--3" value="Code Generator" style="rounded=1;whiteSpace=wrap;html=1;verticalAlign=top;fontStyle=1;fontSize=24;fillColor=#d5e8d4;strokeColor=#82b366;" parent="1" vertex="1">
          <mxGeometry x="-814" y="-212" width="738" height="1129.5" as="geometry" />
        </mxCell>
        <mxCell id="Ha7d3gf7u0IMwQA5T3X--21" style="edgeStyle=orthogonalEdgeStyle;rounded=0;orthogonalLoop=1;jettySize=auto;html=1;entryX=0.5;entryY=0;entryDx=0;entryDy=0;" parent="1" source="Ha7d3gf7u0IMwQA5T3X--4" target="Ha7d3gf7u0IMwQA5T3X--15" edge="1">
          <mxGeometry relative="1" as="geometry" />
        </mxCell>
        <mxCell id="Ha7d3gf7u0IMwQA5T3X--4" value="Open AI API" style="rounded=1;whiteSpace=wrap;html=1;verticalAlign=middle;fontStyle=1;fontSize=24;fillColor=#f8cecc;strokeColor=#b85450;" parent="1" vertex="1">
          <mxGeometry x="-390" y="136.5" width="238" height="65" as="geometry" />
        </mxCell>
        <mxCell id="N74gYBF_VX5_qr-qW0XE-6" value="" style="edgeStyle=orthogonalEdgeStyle;rounded=0;orthogonalLoop=1;jettySize=auto;html=1;" edge="1" parent="1" source="Ha7d3gf7u0IMwQA5T3X--6" target="Ha7d3gf7u0IMwQA5T3X--46">
          <mxGeometry relative="1" as="geometry" />
        </mxCell>
        <mxCell id="Ha7d3gf7u0IMwQA5T3X--6" value="Bug Inserter" style="rounded=1;whiteSpace=wrap;html=1;verticalAlign=top;fontStyle=1;fontSize=24;fillColor=#d5e8d4;strokeColor=#82b366;" parent="1" vertex="1">
          <mxGeometry x="-809" y="957" width="729" height="728" as="geometry" />
        </mxCell>
        <mxCell id="Ha7d3gf7u0IMwQA5T3X--9" value="Code Evaluator" style="rounded=1;whiteSpace=wrap;html=1;verticalAlign=top;fontStyle=1;fontSize=24;fillColor=#d5e8d4;strokeColor=#82b366;" parent="1" vertex="1">
          <mxGeometry x="-800" y="1716" width="727" height="531" as="geometry" />
        </mxCell>
        <mxCell id="Ha7d3gf7u0IMwQA5T3X--20" style="edgeStyle=orthogonalEdgeStyle;rounded=0;orthogonalLoop=1;jettySize=auto;html=1;entryX=0.5;entryY=0;entryDx=0;entryDy=0;" parent="1" source="Ha7d3gf7u0IMwQA5T3X--10" target="Ha7d3gf7u0IMwQA5T3X--15" edge="1">
          <mxGeometry relative="1" as="geometry" />
        </mxCell>
        <mxCell id="Ha7d3gf7u0IMwQA5T3X--23" value="Code +&lt;br style=&quot;font-size: 19px;&quot;&gt;Test Cases" style="edgeLabel;html=1;align=center;verticalAlign=middle;resizable=0;points=[];fontSize=19;labelBackgroundColor=none;fontStyle=1" parent="Ha7d3gf7u0IMwQA5T3X--20" vertex="1" connectable="0">
          <mxGeometry x="0.6579" y="-2" relative="1" as="geometry">
            <mxPoint x="68" y="186" as="offset" />
          </mxGeometry>
        </mxCell>
        <mxCell id="Ha7d3gf7u0IMwQA5T3X--10" value="Ollama API" style="rounded=1;whiteSpace=wrap;html=1;verticalAlign=middle;fontStyle=1;fontSize=24;fillColor=#f8cecc;strokeColor=#b85450;" parent="1" vertex="1">
          <mxGeometry x="-737" y="136.5" width="238" height="65" as="geometry" />
        </mxCell>
        <mxCell id="Ha7d3gf7u0IMwQA5T3X--39" style="edgeStyle=orthogonalEdgeStyle;rounded=0;orthogonalLoop=1;jettySize=auto;html=1;entryX=0.5;entryY=0;entryDx=0;entryDy=0;" parent="1" source="Ha7d3gf7u0IMwQA5T3X--11" target="Ha7d3gf7u0IMwQA5T3X--38" edge="1">
          <mxGeometry relative="1" as="geometry" />
        </mxCell>
        <mxCell id="Ha7d3gf7u0IMwQA5T3X--11" value="Insert Bug (LLM)" style="rounded=1;whiteSpace=wrap;html=1;verticalAlign=middle;fontStyle=1;fontSize=24;fillColor=#f8cecc;strokeColor=#b85450;" parent="1" vertex="1">
          <mxGeometry x="-735" y="1227" width="238" height="65" as="geometry" />
        </mxCell>
        <mxCell id="Ha7d3gf7u0IMwQA5T3X--45" style="edgeStyle=orthogonalEdgeStyle;rounded=0;orthogonalLoop=1;jettySize=auto;html=1;entryX=0.5;entryY=0;entryDx=0;entryDy=0;" parent="1" source="Ha7d3gf7u0IMwQA5T3X--12" target="Ha7d3gf7u0IMwQA5T3X--43" edge="1">
          <mxGeometry relative="1" as="geometry">
            <Array as="points">
              <mxPoint x="-282" y="1536" />
              <mxPoint x="-445" y="1536" />
            </Array>
          </mxGeometry>
        </mxCell>
        <mxCell id="Ha7d3gf7u0IMwQA5T3X--12" value="Insert Bug (AST)" style="rounded=1;whiteSpace=wrap;html=1;verticalAlign=middle;fontStyle=1;fontSize=24;fillColor=#f8cecc;strokeColor=#b85450;" parent="1" vertex="1">
          <mxGeometry x="-401" y="1227" width="238" height="65" as="geometry" />
        </mxCell>
        <mxCell id="Ha7d3gf7u0IMwQA5T3X--56" style="edgeStyle=orthogonalEdgeStyle;rounded=0;orthogonalLoop=1;jettySize=auto;html=1;entryX=0.5;entryY=0;entryDx=0;entryDy=0;" parent="1" source="Ha7d3gf7u0IMwQA5T3X--13" target="Ha7d3gf7u0IMwQA5T3X--55" edge="1">
          <mxGeometry relative="1" as="geometry" />
        </mxCell>
        <mxCell id="Ha7d3gf7u0IMwQA5T3X--13" value="Evaluate Diversity" style="rounded=1;whiteSpace=wrap;html=1;verticalAlign=middle;fontStyle=1;fontSize=24;fillColor=#f8cecc;strokeColor=#b85450;" parent="1" vertex="1">
          <mxGeometry x="-695" y="1933" width="238" height="65" as="geometry" />
        </mxCell>
        <mxCell id="Ha7d3gf7u0IMwQA5T3X--57" style="edgeStyle=orthogonalEdgeStyle;rounded=0;orthogonalLoop=1;jettySize=auto;html=1;entryX=0.5;entryY=0;entryDx=0;entryDy=0;" parent="1" source="Ha7d3gf7u0IMwQA5T3X--14" target="Ha7d3gf7u0IMwQA5T3X--55" edge="1">
          <mxGeometry relative="1" as="geometry" />
        </mxCell>
        <mxCell id="Ha7d3gf7u0IMwQA5T3X--14" value="Evaluate Complexity" style="rounded=1;whiteSpace=wrap;html=1;verticalAlign=middle;fontStyle=1;fontSize=24;fillColor=#f8cecc;strokeColor=#b85450;" parent="1" vertex="1">
          <mxGeometry x="-432" y="1933" width="238" height="65" as="geometry" />
        </mxCell>
        <mxCell id="Ha7d3gf7u0IMwQA5T3X--25" style="edgeStyle=orthogonalEdgeStyle;rounded=0;orthogonalLoop=1;jettySize=auto;html=1;entryX=0.5;entryY=0;entryDx=0;entryDy=0;" parent="1" source="Ha7d3gf7u0IMwQA5T3X--15" target="Ha7d3gf7u0IMwQA5T3X--24" edge="1">
          <mxGeometry relative="1" as="geometry" />
        </mxCell>
        <mxCell id="Ha7d3gf7u0IMwQA5T3X--15" value="Self Reflection" style="rounded=1;whiteSpace=wrap;html=1;verticalAlign=middle;fontStyle=1;fontSize=24;fillColor=#f8cecc;strokeColor=#b85450;" parent="1" vertex="1">
          <mxGeometry x="-564" y="443.5" width="238" height="65" as="geometry" />
        </mxCell>
        <mxCell id="Ha7d3gf7u0IMwQA5T3X--30" style="edgeStyle=orthogonalEdgeStyle;rounded=0;orthogonalLoop=1;jettySize=auto;html=1;entryX=0.5;entryY=0;entryDx=0;entryDy=0;" parent="1" source="Ha7d3gf7u0IMwQA5T3X--24" target="Ha7d3gf7u0IMwQA5T3X--29" edge="1">
          <mxGeometry relative="1" as="geometry" />
        </mxCell>
        <mxCell id="Ha7d3gf7u0IMwQA5T3X--24" value="Run Code, Ensure Pass + Save Result" style="rounded=1;whiteSpace=wrap;html=1;verticalAlign=middle;fontStyle=1;fontSize=24;fillColor=#f8cecc;strokeColor=#b85450;" parent="1" vertex="1">
          <mxGeometry x="-564" y="610.5" width="238" height="65" as="geometry" />
        </mxCell>
        <mxCell id="Ha7d3gf7u0IMwQA5T3X--26" value="Code +&lt;br style=&quot;font-size: 19px;&quot;&gt;Test Cases" style="edgeLabel;html=1;align=center;verticalAlign=middle;resizable=0;points=[];fontSize=19;labelBackgroundColor=none;fontStyle=1" parent="1" vertex="1" connectable="0">
          <mxGeometry x="-374.00084450401624" y="375.50222382620706" as="geometry" />
        </mxCell>
        <mxCell id="N74gYBF_VX5_qr-qW0XE-2" style="edgeStyle=orthogonalEdgeStyle;rounded=0;orthogonalLoop=1;jettySize=auto;html=1;entryX=0.5;entryY=0;entryDx=0;entryDy=0;shape=link;" edge="1" parent="1" source="Ha7d3gf7u0IMwQA5T3X--29" target="Ha7d3gf7u0IMwQA5T3X--31">
          <mxGeometry relative="1" as="geometry" />
        </mxCell>
        <mxCell id="Ha7d3gf7u0IMwQA5T3X--29" value="Write out to Working_x.py" style="rounded=1;whiteSpace=wrap;html=1;verticalAlign=middle;fontStyle=1;fontSize=24;fillColor=#f8cecc;strokeColor=#b85450;" parent="1" vertex="1">
          <mxGeometry x="-564" y="777.5" width="238" height="65" as="geometry" />
        </mxCell>
        <mxCell id="Ha7d3gf7u0IMwQA5T3X--32" style="edgeStyle=orthogonalEdgeStyle;rounded=0;orthogonalLoop=1;jettySize=auto;html=1;entryX=0.5;entryY=0;entryDx=0;entryDy=0;" parent="1" source="Ha7d3gf7u0IMwQA5T3X--31" target="Ha7d3gf7u0IMwQA5T3X--11" edge="1">
          <mxGeometry relative="1" as="geometry" />
        </mxCell>
        <mxCell id="Ha7d3gf7u0IMwQA5T3X--33" style="edgeStyle=orthogonalEdgeStyle;rounded=0;orthogonalLoop=1;jettySize=auto;html=1;entryX=0.5;entryY=0;entryDx=0;entryDy=0;" parent="1" source="Ha7d3gf7u0IMwQA5T3X--31" target="Ha7d3gf7u0IMwQA5T3X--12" edge="1">
          <mxGeometry relative="1" as="geometry" />
        </mxCell>
        <mxCell id="Ha7d3gf7u0IMwQA5T3X--31" value="Read in from Working_x.py" style="rounded=1;whiteSpace=wrap;html=1;verticalAlign=middle;fontStyle=1;fontSize=24;fillColor=#f8cecc;strokeColor=#b85450;" parent="1" vertex="1">
          <mxGeometry x="-564" y="1072" width="238" height="65" as="geometry" />
        </mxCell>
        <mxCell id="Ha7d3gf7u0IMwQA5T3X--42" style="edgeStyle=orthogonalEdgeStyle;rounded=0;orthogonalLoop=1;jettySize=auto;html=1;entryX=0.5;entryY=0;entryDx=0;entryDy=0;" parent="1" source="Ha7d3gf7u0IMwQA5T3X--38" target="Ha7d3gf7u0IMwQA5T3X--40" edge="1">
          <mxGeometry relative="1" as="geometry" />
        </mxCell>
        <mxCell id="Ha7d3gf7u0IMwQA5T3X--38" value="Self Reflection" style="rounded=1;whiteSpace=wrap;html=1;verticalAlign=middle;fontStyle=1;fontSize=24;fillColor=#f8cecc;strokeColor=#b85450;" parent="1" vertex="1">
          <mxGeometry x="-735" y="1329" width="238" height="65" as="geometry" />
        </mxCell>
        <mxCell id="Ha7d3gf7u0IMwQA5T3X--44" style="edgeStyle=orthogonalEdgeStyle;rounded=0;orthogonalLoop=1;jettySize=auto;html=1;entryX=0.5;entryY=0;entryDx=0;entryDy=0;" parent="1" source="Ha7d3gf7u0IMwQA5T3X--40" target="Ha7d3gf7u0IMwQA5T3X--43" edge="1">
          <mxGeometry relative="1" as="geometry" />
        </mxCell>
        <mxCell id="Ha7d3gf7u0IMwQA5T3X--40" value="Run Code, Ensure Pass | Wrong Result" style="rounded=1;whiteSpace=wrap;html=1;verticalAlign=middle;fontStyle=1;fontSize=24;fillColor=#f8cecc;strokeColor=#b85450;" parent="1" vertex="1">
          <mxGeometry x="-735" y="1431" width="238" height="65" as="geometry" />
        </mxCell>
        <mxCell id="N74gYBF_VX5_qr-qW0XE-1" style="edgeStyle=orthogonalEdgeStyle;rounded=0;orthogonalLoop=1;jettySize=auto;html=1;entryX=0.5;entryY=0;entryDx=0;entryDy=0;shape=link;" edge="1" parent="1" source="Ha7d3gf7u0IMwQA5T3X--43" target="Ha7d3gf7u0IMwQA5T3X--46">
          <mxGeometry relative="1" as="geometry" />
        </mxCell>
        <mxCell id="N74gYBF_VX5_qr-qW0XE-8" style="edgeStyle=orthogonalEdgeStyle;rounded=0;orthogonalLoop=1;jettySize=auto;html=1;entryX=0.5;entryY=0;entryDx=0;entryDy=0;" edge="1" parent="1" source="Ha7d3gf7u0IMwQA5T3X--43" target="N74gYBF_VX5_qr-qW0XE-7">
          <mxGeometry relative="1" as="geometry" />
        </mxCell>
        <mxCell id="Ha7d3gf7u0IMwQA5T3X--43" value="Write out to Problem_x.py" style="rounded=1;whiteSpace=wrap;html=1;verticalAlign=middle;fontStyle=1;fontSize=24;fillColor=#f8cecc;strokeColor=#b85450;" parent="1" vertex="1">
          <mxGeometry x="-564" y="1576" width="238" height="65" as="geometry" />
        </mxCell>
        <mxCell id="Ha7d3gf7u0IMwQA5T3X--47" style="edgeStyle=orthogonalEdgeStyle;rounded=0;orthogonalLoop=1;jettySize=auto;html=1;entryX=0.5;entryY=0;entryDx=0;entryDy=0;" parent="1" source="Ha7d3gf7u0IMwQA5T3X--46" target="Ha7d3gf7u0IMwQA5T3X--13" edge="1">
          <mxGeometry relative="1" as="geometry" />
        </mxCell>
        <mxCell id="Ha7d3gf7u0IMwQA5T3X--48" style="edgeStyle=orthogonalEdgeStyle;rounded=0;orthogonalLoop=1;jettySize=auto;html=1;entryX=0.5;entryY=0;entryDx=0;entryDy=0;" parent="1" source="Ha7d3gf7u0IMwQA5T3X--46" target="Ha7d3gf7u0IMwQA5T3X--14" edge="1">
          <mxGeometry relative="1" as="geometry" />
        </mxCell>
        <mxCell id="Ha7d3gf7u0IMwQA5T3X--46" value="Read in from Problem_x.py" style="rounded=1;whiteSpace=wrap;html=1;verticalAlign=middle;fontStyle=1;fontSize=24;fillColor=#f8cecc;strokeColor=#b85450;" parent="1" vertex="1">
          <mxGeometry x="-563.5" y="1778" width="238" height="65" as="geometry" />
        </mxCell>
        <mxCell id="Ha7d3gf7u0IMwQA5T3X--55" value="Write out to Output.csv" style="rounded=1;whiteSpace=wrap;html=1;verticalAlign=middle;fontStyle=1;fontSize=24;fillColor=#f8cecc;strokeColor=#b85450;" parent="1" vertex="1">
          <mxGeometry x="-563.5" y="2137" width="238" height="65" as="geometry" />
        </mxCell>
        <mxCell id="lNBjgm1yzpEySvhE5yfF-10" style="edgeStyle=orthogonalEdgeStyle;rounded=0;orthogonalLoop=1;jettySize=auto;html=1;entryX=0;entryY=0.5;entryDx=0;entryDy=0;" parent="1" source="lNBjgm1yzpEySvhE5yfF-3" target="lNBjgm1yzpEySvhE5yfF-9" edge="1">
          <mxGeometry relative="1" as="geometry" />
        </mxCell>
        <mxCell id="lNBjgm1yzpEySvhE5yfF-3" value="Benchmark Suite" style="rounded=1;whiteSpace=wrap;html=1;fillStyle=solid;fillColor=light-dark(#99c1f1, #ededed);strokeColor=#6c8ebf;verticalAlign=top;fontSize=35;fontStyle=1" parent="1" vertex="1">
          <mxGeometry x="-608" y="-1115" width="915" height="491" as="geometry" />
        </mxCell>
        <mxCell id="lNBjgm1yzpEySvhE5yfF-8" value="For Topic in Topics" style="rounded=1;whiteSpace=wrap;html=1;fillStyle=solid;fillColor=#fff2cc;strokeColor=#d6b656;verticalAlign=top;fontSize=35;fontStyle=1" parent="1" vertex="1">
          <mxGeometry x="-570" y="-1051" width="838" height="390" as="geometry" />
        </mxCell>
        <mxCell id="lNBjgm1yzpEySvhE5yfF-7" value="For AstBug + LLMBug" style="rounded=1;whiteSpace=wrap;html=1;fillStyle=solid;fillColor=#e1d5e7;strokeColor=#9673a6;verticalAlign=top;fontSize=35;fontStyle=1" parent="1" vertex="1">
          <mxGeometry x="-476" y="-991" width="732" height="300" as="geometry" />
        </mxCell>
        <mxCell id="lNBjgm1yzpEySvhE5yfF-6" value="For Model in Models" style="rounded=1;whiteSpace=wrap;html=1;verticalAlign=top;fontStyle=1;fontSize=35;fillColor=#d5e8d4;strokeColor=#82b366;" parent="1" vertex="1">
          <mxGeometry x="-387" y="-920" width="625" height="199" as="geometry" />
        </mxCell>
        <mxCell id="lNBjgm1yzpEySvhE5yfF-5" value="&lt;div&gt;Main.py&lt;/div&gt;" style="rounded=1;whiteSpace=wrap;html=1;fillStyle=solid;fillColor=#f8cecc;strokeColor=#b85450;verticalAlign=middle;fontSize=35;fontStyle=1" parent="1" vertex="1">
          <mxGeometry x="-304" y="-863" width="522" height="100" as="geometry" />
        </mxCell>
        <mxCell id="lNBjgm1yzpEySvhE5yfF-9" value="Output.csv" style="rounded=1;whiteSpace=wrap;html=1;fillStyle=solid;fillColor=#f8cecc;strokeColor=#b85450;verticalAlign=middle;fontSize=35;fontStyle=1" parent="1" vertex="1">
          <mxGeometry x="456" y="-919" width="348" height="100" as="geometry" />
        </mxCell>
        <mxCell id="N74gYBF_VX5_qr-qW0XE-4" style="edgeStyle=orthogonalEdgeStyle;rounded=0;orthogonalLoop=1;jettySize=auto;html=1;entryX=0.5;entryY=0;entryDx=0;entryDy=0;" edge="1" parent="1" source="N74gYBF_VX5_qr-qW0XE-3" target="Ha7d3gf7u0IMwQA5T3X--10">
          <mxGeometry relative="1" as="geometry" />
        </mxCell>
        <mxCell id="N74gYBF_VX5_qr-qW0XE-5" style="edgeStyle=orthogonalEdgeStyle;rounded=0;orthogonalLoop=1;jettySize=auto;html=1;entryX=0.5;entryY=0;entryDx=0;entryDy=0;" edge="1" parent="1" source="N74gYBF_VX5_qr-qW0XE-3" target="Ha7d3gf7u0IMwQA5T3X--4">
          <mxGeometry relative="1" as="geometry" />
        </mxCell>
        <mxCell id="N74gYBF_VX5_qr-qW0XE-3" value="Prompt + Parameters" style="rounded=1;whiteSpace=wrap;html=1;verticalAlign=middle;fontStyle=1;fontSize=24;fillColor=#f8cecc;strokeColor=#b85450;" vertex="1" parent="1">
          <mxGeometry x="-563" y="-158" width="238" height="65" as="geometry" />
        </mxCell>
        <mxCell id="N74gYBF_VX5_qr-qW0XE-7" value="Future front end to be used as educational tool" style="rounded=1;whiteSpace=wrap;html=1;verticalAlign=middle;fontStyle=1;fontSize=24;fillColor=#d5e8d4;strokeColor=#82b366;align=center;" vertex="1" parent="1">
          <mxGeometry x="-1032" y="1722" width="156" height="520" as="geometry" />
        </mxCell>
      </root>
    </mxGraphModel>
  </diagram>
</mxfile>
